<svg width="221" height="156" viewBox="0 0 221 156" fill="none" xmlns="http://www.w3.org/2000/svg">
<rect x="0.5" y="0.5" width="220" height="155" rx="4.5" stroke="#9747FF" stroke-dasharray="10 5"/>
<rect x="20" y="20" width="184" height="48" rx="24" fill="white"/>
<rect x="27" y="27" width="34" height="34" rx="17" fill="#E65F2B"/>
<path fill-rule="evenodd" clip-rule="evenodd" d="M44 35C44.5523 35 45 35.4477 45 36V43H52C52.5523 43 53 43.4477 53 44C53 44.5523 52.5523 45 52 45H45V52C45 52.5523 44.5523 53 44 53C43.4477 53 43 52.5523 43 52V45H36C35.4477 45 35 44.5523 35 44C35 43.4477 35.4477 43 36 43H43V36C43 35.4477 43.4477 35 44 35Z" fill="white"/>
<path d="M76.166 41.084C73.352 41.084 71.588 39.096 71.588 36.1C71.588 33.132 73.422 31.116 76.264 31.116C78.434 31.116 80.016 32.376 80.38 34.406H79.092C78.714 33.048 77.678 32.236 76.208 32.236C74.15 32.236 72.834 33.832 72.834 36.1C72.834 38.354 74.094 39.964 76.152 39.964C77.664 39.964 78.714 39.166 79.078 37.794H80.366C80.002 39.824 78.378 41.084 76.166 41.084ZM84.9728 33.86H85.2948V34.98H84.7208C83.2228 34.98 82.8168 36.226 82.8168 37.36V41H81.6688V33.86H82.6628L82.8168 34.938C83.1528 34.392 83.6988 33.86 84.9728 33.86ZM89.1697 41.084C87.0277 41.084 85.6277 39.614 85.6277 37.43C85.6277 35.26 86.9997 33.776 89.0157 33.776C91.0317 33.776 92.3477 35.05 92.4037 37.164C92.4037 37.318 92.3897 37.486 92.3757 37.654H86.8317V37.752C86.8737 39.11 87.7277 40.062 89.0857 40.062C90.0937 40.062 90.8777 39.53 91.1157 38.606H92.2777C91.9977 40.034 90.8217 41.084 89.1697 41.084ZM86.9017 36.702H91.1717C91.0597 35.47 90.2197 34.784 89.0297 34.784C87.9797 34.784 87.0137 35.54 86.9017 36.702ZM100.028 39.95H100.392V41H99.7617C98.8097 41 98.4877 40.594 98.4737 39.894C98.0257 40.538 97.3117 41.084 96.0797 41.084C94.5117 41.084 93.4477 40.3 93.4477 38.998C93.4477 37.57 94.4417 36.772 96.3177 36.772H98.4177V36.282C98.4177 35.358 97.7597 34.798 96.6397 34.798C95.6317 34.798 94.9597 35.274 94.8197 36.002H93.6717C93.8397 34.602 94.9737 33.776 96.6957 33.776C98.5157 33.776 99.5657 34.686 99.5657 36.352V39.474C99.5657 39.852 99.7057 39.95 100.028 39.95ZM98.4177 38.088V37.738H96.2057C95.1837 37.738 94.6097 38.116 94.6097 38.928C94.6097 39.628 95.2117 40.104 96.1637 40.104C97.5917 40.104 98.4177 39.278 98.4177 38.088ZM101.806 39.138V34.91H100.518V33.86H101.806V31.858H102.954V33.86H104.802V34.91H102.954V39.124C102.954 39.726 103.164 39.95 103.78 39.95H104.914V41H103.668C102.296 41 101.806 40.398 101.806 39.138ZM109.021 41.084C106.879 41.084 105.479 39.614 105.479 37.43C105.479 35.26 106.851 33.776 108.867 33.776C110.883 33.776 112.199 35.05 112.255 37.164C112.255 37.318 112.241 37.486 112.227 37.654H106.683V37.752C106.725 39.11 107.579 40.062 108.937 40.062C109.945 40.062 110.729 39.53 110.967 38.606H112.129C111.849 40.034 110.673 41.084 109.021 41.084ZM106.753 36.702H111.023C110.911 35.47 110.071 34.784 108.881 34.784C107.831 34.784 106.865 35.54 106.753 36.702ZM120.729 33.776C122.339 33.776 123.613 34.658 123.613 37.024V41H122.465V37.094C122.465 35.61 121.779 34.826 120.533 34.826C119.189 34.826 118.377 35.82 118.377 37.43V41H117.229V33.86H118.223L118.377 34.826C118.797 34.28 119.525 33.776 120.729 33.776ZM128.285 41.084C126.143 41.084 124.743 39.614 124.743 37.43C124.743 35.26 126.115 33.776 128.131 33.776C130.147 33.776 131.463 35.05 131.519 37.164C131.519 37.318 131.505 37.486 131.491 37.654H125.947V37.752C125.989 39.11 126.843 40.062 128.201 40.062C129.209 40.062 129.993 39.53 130.231 38.606H131.393C131.113 40.034 129.937 41.084 128.285 41.084ZM126.017 36.702H130.287C130.175 35.47 129.335 34.784 128.145 34.784C127.095 34.784 126.129 35.54 126.017 36.702ZM134.235 41L131.925 33.86H133.129L134.907 39.67L136.783 33.86H137.847L139.625 39.67L141.487 33.86H142.649L140.269 41H139.008L137.287 35.694L135.495 41H134.235ZM75.382 49.776C77.356 49.776 78.812 51.106 78.812 53.43C78.812 55.614 77.356 57.084 75.382 57.084C74.178 57.084 73.366 56.594 72.932 55.908V59.8H71.784V49.86H72.778L72.932 51.008C73.408 50.35 74.178 49.776 75.382 49.776ZM75.27 56.062C76.684 56.062 77.636 54.984 77.636 53.43C77.636 51.876 76.684 50.798 75.27 50.798C73.87 50.798 72.918 51.876 72.918 53.402C72.918 54.97 73.87 56.062 75.27 56.062ZM83.4278 49.86H83.7498V50.98H83.1758C81.6778 50.98 81.2718 52.226 81.2718 53.36V57H80.1238V49.86H81.1178L81.2718 50.938C81.6078 50.392 82.1538 49.86 83.4278 49.86ZM87.6248 57.084C85.5388 57.084 84.0828 55.6 84.0828 53.43C84.0828 51.26 85.5388 49.776 87.6248 49.776C89.7108 49.776 91.1668 51.26 91.1668 53.43C91.1668 55.6 89.7108 57.084 87.6248 57.084ZM87.6248 56.062C89.0388 56.062 89.9908 54.956 89.9908 53.43C89.9908 51.904 89.0388 50.798 87.6248 50.798C86.2108 50.798 85.2588 51.904 85.2588 53.43C85.2588 54.956 86.2108 56.062 87.6248 56.062ZM93.1412 48.656C92.7212 48.656 92.3992 48.348 92.3992 47.914C92.3992 47.48 92.7212 47.172 93.1412 47.172C93.5612 47.172 93.8832 47.48 93.8832 47.914C93.8832 48.348 93.5612 48.656 93.1412 48.656ZM90.8872 59.8V58.75H91.7832C92.3572 58.75 92.5672 58.512 92.5672 57.966V49.86H93.7152V57.938C93.7152 59.198 93.1832 59.8 91.8532 59.8H90.8872ZM98.576 57.084C96.434 57.084 95.034 55.614 95.034 53.43C95.034 51.26 96.406 49.776 98.422 49.776C100.438 49.776 101.754 51.05 101.81 53.164C101.81 53.318 101.796 53.486 101.782 53.654H96.238V53.752C96.28 55.11 97.134 56.062 98.492 56.062C99.5 56.062 100.284 55.53 100.522 54.606H101.684C101.404 56.034 100.228 57.084 98.576 57.084ZM96.308 52.702H100.578C100.466 51.47 99.626 50.784 98.436 50.784C97.386 50.784 96.42 51.54 96.308 52.702ZM106.326 57.084C104.24 57.084 102.868 55.67 102.868 53.444C102.868 51.26 104.282 49.776 106.354 49.776C108.104 49.776 109.21 50.756 109.504 52.324H108.3C108.09 51.372 107.39 50.798 106.34 50.798C104.968 50.798 104.044 51.89 104.044 53.444C104.044 54.998 104.968 56.062 106.34 56.062C107.362 56.062 108.062 55.474 108.286 54.564H109.504C109.224 56.104 108.062 57.084 106.326 57.084ZM111.295 55.138V50.91H110.007V49.86H111.295V47.858H112.443V49.86H114.291V50.91H112.443V55.124C112.443 55.726 112.653 55.95 113.269 55.95H114.403V57H113.157C111.785 57 111.295 56.398 111.295 55.138Z" fill="#171717"/>
<rect x="20" y="88" width="48" height="48" rx="24" fill="#E65F2B"/>
<path fill-rule="evenodd" clip-rule="evenodd" d="M44 103C44.5523 103 45 103.448 45 104V111H52C52.5523 111 53 111.448 53 112C53 112.552 52.5523 113 52 113H45V120C45 120.552 44.5523 121 44 121C43.4477 121 43 120.552 43 120V113H36C35.4477 113 35 112.552 35 112C35 111.448 35.4477 111 36 111H43V104C43 103.448 43.4477 103 44 103Z" fill="white"/>
</svg>
