<svg width="416" height="116" viewBox="0 0 416 116" fill="none" xmlns="http://www.w3.org/2000/svg">
<rect x="0.5" y="0.5" width="415" height="115" rx="4.5" stroke="#9747FF" stroke-dasharray="10 5"/>
<path fill-rule="evenodd" clip-rule="evenodd" d="M33.0347 22.0347C33.6674 21.4019 34.5607 21.1458 35.5833 21.1458H37.4167C38.4393 21.1458 39.3326 21.4019 39.9653 22.0347C40.5981 22.6674 40.8542 23.5607 40.8542 24.5833V26.4166C40.8542 27.4393 40.5981 28.3325 39.9653 28.9653C39.3326 29.598 38.4393 29.8541 37.4167 29.8541H35.5833C34.5607 29.8541 33.6674 29.598 33.0347 28.9653C32.402 28.3325 32.1458 27.4393 32.1458 26.4166V24.5833C32.1458 23.5607 32.402 22.6674 33.0347 22.0347ZM34.007 23.0069C33.7231 23.2909 33.5208 23.7726 33.5208 24.5833V26.4166C33.5208 27.2273 33.7231 27.7091 34.007 27.993C34.2909 28.2769 34.7727 28.4791 35.5833 28.4791H37.4167C38.2274 28.4791 38.7091 28.2769 38.993 27.993C39.277 27.7091 39.4792 27.2273 39.4792 26.4166V24.5833C39.4792 23.7726 39.277 23.2909 38.993 23.0069C38.7091 22.723 38.2274 22.5208 37.4167 22.5208H35.5833C34.7727 22.5208 34.2909 22.723 34.007 23.0069Z" fill="#F1F1F1"/>
<path fill-rule="evenodd" clip-rule="evenodd" d="M22.0347 33.0347C22.6674 32.4019 23.5607 32.1458 24.5833 32.1458H26.4167C27.4393 32.1458 28.3326 32.4019 28.9653 33.0347C29.5981 33.6674 29.8542 34.5607 29.8542 35.5833V37.4166C29.8542 38.4393 29.5981 39.3325 28.9653 39.9653C28.3326 40.598 27.4393 40.8541 26.4167 40.8541H24.5833C23.5607 40.8541 22.6674 40.598 22.0347 39.9653C21.402 39.3325 21.1458 38.4393 21.1458 37.4166V35.5833C21.1458 34.5607 21.402 33.6674 22.0347 33.0347ZM23.007 34.0069C22.7231 34.2909 22.5208 34.7726 22.5208 35.5833V37.4166C22.5208 38.2273 22.7231 38.7091 23.007 38.993C23.2909 39.2769 23.7727 39.4791 24.5833 39.4791H26.4167C27.2274 39.4791 27.7091 39.2769 27.993 38.993C28.277 38.7091 28.4792 38.2273 28.4792 37.4166V35.5833C28.4792 34.7726 28.277 34.2909 27.993 34.0069C27.7091 33.723 27.2274 33.5208 26.4167 33.5208H24.5833C23.7727 33.5208 23.2909 33.723 23.007 34.0069Z" fill="#F1F1F1"/>
<path fill-rule="evenodd" clip-rule="evenodd" d="M25.5 22.5208C23.8547 22.5208 22.5208 23.8546 22.5208 25.5C22.5208 27.1453 23.8547 28.4791 25.5 28.4791C27.1454 28.4791 28.4792 27.1453 28.4792 25.5C28.4792 23.8546 27.1454 22.5208 25.5 22.5208ZM21.1458 25.5C21.1458 23.0952 23.0953 21.1458 25.5 21.1458C27.9047 21.1458 29.8542 23.0952 29.8542 25.5C29.8542 27.9047 27.9047 29.8541 25.5 29.8541C23.0953 29.8541 21.1458 27.9047 21.1458 25.5Z" fill="#F1F1F1"/>
<path fill-rule="evenodd" clip-rule="evenodd" d="M36.5 33.5208C34.8547 33.5208 33.5208 34.8546 33.5208 36.5C33.5208 38.1453 34.8547 39.4791 36.5 39.4791C38.1454 39.4791 39.4792 38.1453 39.4792 36.5C39.4792 34.8546 38.1454 33.5208 36.5 33.5208ZM32.1458 36.5C32.1458 34.0952 34.0953 32.1458 36.5 32.1458C38.9047 32.1458 40.8542 34.0952 40.8542 36.5C40.8542 38.9047 38.9047 40.8541 36.5 40.8541C34.0953 40.8541 32.1458 38.9047 32.1458 36.5Z" fill="#F1F1F1"/>
<path fill-rule="evenodd" clip-rule="evenodd" d="M66.1757 26.2491C66.9874 25.2842 68.3789 24.8125 70.4167 24.8125H79.5833C81.6211 24.8125 83.0126 25.2842 83.8243 26.2491C84.628 27.2047 84.7045 28.4601 84.5756 29.6306L83.8878 36.9674C83.7868 37.9098 83.5502 38.943 82.7088 39.7117C81.8736 40.4748 80.5796 40.8542 78.6667 40.8542H71.3333C69.4204 40.8542 68.1264 40.4748 67.2912 39.7117C66.4497 38.943 66.2132 37.9098 66.1122 36.9674L66.1113 36.9583L65.4244 29.6306C65.2955 28.4601 65.372 27.2047 66.1757 26.2491ZM67.228 27.1342C66.7956 27.6483 66.6739 28.4208 66.7917 29.4852L66.7929 29.4967L67.4799 36.8254C67.5716 37.6773 67.7615 38.279 68.2186 38.6966C68.6828 39.1206 69.5613 39.4792 71.3333 39.4792H78.6667C80.4387 39.4792 81.3172 39.1206 81.7814 38.6966C82.2385 38.279 82.4284 37.6773 82.5201 36.8254L83.2082 29.4852C83.326 28.4208 83.2044 27.6483 82.772 27.1342C82.3461 26.6279 81.4597 26.1875 79.5833 26.1875H70.4167C68.5403 26.1875 67.6539 26.6279 67.228 27.1342Z" fill="#F1F1F1"/>
<path fill-rule="evenodd" clip-rule="evenodd" d="M72.0609 23.7128C72.022 24.0111 72.0208 24.3501 72.0208 24.7666V25.5C72.0208 25.8797 71.713 26.1875 71.3333 26.1875C70.9536 26.1875 70.6458 25.8797 70.6458 25.5L70.6458 24.7428C70.6458 24.3546 70.6458 23.9305 70.6975 23.5348C70.751 23.1248 70.8657 22.6895 71.1344 22.3007C71.6998 21.4827 72.7354 21.1458 74.2667 21.1458H75.7333C77.2646 21.1458 78.3002 21.4827 78.8656 22.3007C79.1343 22.6895 79.249 23.1248 79.3026 23.5348C79.3542 23.9305 79.3542 24.3546 79.3542 24.7428L79.3542 25.5C79.3542 25.8797 79.0464 26.1875 78.6667 26.1875C78.287 26.1875 77.9792 25.8797 77.9792 25.5V24.7666C77.9792 24.3501 77.9781 24.0111 77.9391 23.7128C77.901 23.4207 77.8324 23.2241 77.7344 23.0824C77.5665 22.8394 77.1354 22.5208 75.7333 22.5208H74.2667C72.8646 22.5208 72.4336 22.8394 72.2656 23.0824C72.1676 23.2241 72.099 23.4207 72.0609 23.7128Z" fill="#F1F1F1"/>
<path fill-rule="evenodd" clip-rule="evenodd" d="M73.8549 31.6882C73.8542 31.7537 73.8542 31.8283 73.8542 31.9167V32.8608C73.8542 33.1189 73.8564 33.3087 73.8788 33.4698C73.9004 33.6246 73.9346 33.7 73.9636 33.7409C73.996 33.7865 74.1572 33.9792 75 33.9792C75.8466 33.9792 76.0059 33.7847 76.0376 33.7395C76.0668 33.6978 76.1009 33.6213 76.1221 33.4646C76.1441 33.3017 76.1458 33.111 76.1458 32.8517V31.9167C76.1458 31.8283 76.1458 31.7537 76.1451 31.6882C76.0797 31.6875 76.0051 31.6875 75.9167 31.6875H74.0833C73.9949 31.6875 73.9203 31.6875 73.8549 31.6882ZM74.0532 30.3125C74.0633 30.3125 74.0733 30.3125 74.0833 30.3125H75.9167C75.9267 30.3125 75.9367 30.3125 75.9468 30.3125C76.1495 30.3125 76.3549 30.3124 76.5225 30.331C76.6934 30.35 76.9772 30.4008 77.2049 30.6285C77.4326 30.8561 77.4833 31.1399 77.5023 31.3108C77.5209 31.4784 77.5209 31.6839 77.5208 31.8866C77.5208 31.8966 77.5208 31.9066 77.5208 31.9167V32.862C77.5208 33.1 77.5208 33.3817 77.4847 33.649C77.4472 33.9263 77.365 34.241 77.1639 34.5283C76.7349 35.1407 75.9775 35.3542 75 35.3542C74.0278 35.3542 73.2724 35.1435 72.8418 34.536C72.6394 34.2504 72.5556 33.9367 72.517 33.6593C72.4792 33.3881 72.4792 33.1024 72.4792 32.8608V31.9167C72.4792 31.9066 72.4792 31.8966 72.4792 31.8866C72.4791 31.6839 72.4791 31.4784 72.4977 31.3108C72.5167 31.1399 72.5674 30.8561 72.7951 30.6285C73.0228 30.4008 73.3066 30.35 73.4775 30.331C73.6451 30.3124 73.8505 30.3125 74.0532 30.3125Z" fill="#F1F1F1"/>
<path fill-rule="evenodd" clip-rule="evenodd" d="M84.4018 29.6789C84.6252 29.986 84.5573 30.416 84.2502 30.6393C82.0354 32.2501 79.505 33.2081 76.9192 33.5337C76.5425 33.5812 76.1987 33.3143 76.1512 32.9375C76.1038 32.5608 76.3707 32.217 76.7474 32.1695C79.1117 31.8718 81.4213 30.9965 83.4415 29.5273C83.7485 29.304 84.1785 29.3719 84.4018 29.6789Z" fill="#F1F1F1"/>
<path fill-rule="evenodd" clip-rule="evenodd" d="M65.8343 29.9425C66.0488 29.6292 66.4767 29.549 66.79 29.7635C68.7598 31.1117 70.9811 31.9243 73.2432 32.1776C73.6205 32.2198 73.8922 32.56 73.8499 32.9373C73.8077 33.3147 73.4675 33.5863 73.0902 33.544C70.6039 33.2657 68.1685 32.3733 66.0134 30.8982C65.7 30.6837 65.6199 30.2558 65.8343 29.9425Z" fill="#F1F1F1"/>
<path fill-rule="evenodd" clip-rule="evenodd" d="M117.396 37.875C117.396 37.4953 117.704 37.1875 118.083 37.1875H127.25C127.63 37.1875 127.938 37.4953 127.938 37.875C127.938 38.2547 127.63 38.5625 127.25 38.5625H118.083C117.704 38.5625 117.396 38.2547 117.396 37.875Z" fill="#F1F1F1"/>
<path fill-rule="evenodd" clip-rule="evenodd" d="M117.396 31.4583C117.396 31.0786 117.704 30.7708 118.083 30.7708H127.25C127.63 30.7708 127.938 31.0786 127.938 31.4583C127.938 31.838 127.63 32.1458 127.25 32.1458H118.083C117.704 32.1458 117.396 31.838 117.396 31.4583Z" fill="#F1F1F1"/>
<path fill-rule="evenodd" clip-rule="evenodd" d="M117.396 25.0416C117.396 24.6619 117.704 24.3541 118.083 24.3541H127.25C127.63 24.3541 127.938 24.6619 127.938 25.0416C127.938 25.4213 127.63 25.7291 127.25 25.7291H118.083C117.704 25.7291 117.396 25.4213 117.396 25.0416Z" fill="#F1F1F1"/>
<path fill-rule="evenodd" clip-rule="evenodd" d="M114.903 22.7222C115.171 22.9907 115.171 23.426 114.903 23.6944L112.153 26.4444C111.884 26.7129 111.449 26.7129 111.181 26.4444L110.264 25.5278C109.995 25.2593 109.995 24.824 110.264 24.5555C110.532 24.287 110.968 24.287 111.236 24.5555L111.667 24.986L113.931 22.7222C114.199 22.4537 114.634 22.4537 114.903 22.7222Z" fill="#F1F1F1"/>
<path fill-rule="evenodd" clip-rule="evenodd" d="M114.903 29.1389C115.171 29.4073 115.171 29.8427 114.903 30.1111L112.153 32.8611C111.884 33.1296 111.449 33.1296 111.181 32.8611L110.264 31.9445C109.995 31.676 109.995 31.2407 110.264 30.9722C110.532 30.7037 110.968 30.7037 111.236 30.9722L111.667 31.4027L113.931 29.1389C114.199 28.8704 114.634 28.8704 114.903 29.1389Z" fill="#F1F1F1"/>
<path fill-rule="evenodd" clip-rule="evenodd" d="M114.903 35.5555C115.171 35.824 115.171 36.2593 114.903 36.5278L112.153 39.2778C111.884 39.5462 111.449 39.5462 111.181 39.2778L110.264 38.3611C109.995 38.0926 109.995 37.6573 110.264 37.3888C110.532 37.1203 110.968 37.1203 111.236 37.3888L111.667 37.8194L113.931 35.5555C114.199 35.287 114.634 35.287 114.903 35.5555Z" fill="#F1F1F1"/>
<path fill-rule="evenodd" clip-rule="evenodd" d="M156.372 24.3722C157.389 23.3551 158.899 22.9791 160.8 22.9791H165.2C167.101 22.9791 168.611 23.3551 169.628 24.3722C170.645 25.3892 171.021 26.8988 171.021 28.8C171.021 29.1797 170.713 29.4875 170.333 29.4875C169.954 29.4875 169.646 29.1797 169.646 28.8C169.646 27.0344 169.289 25.9774 168.656 25.3444C168.023 24.7114 166.966 24.3541 165.2 24.3541H160.8C159.034 24.3541 157.977 24.7114 157.344 25.3444C156.711 25.9774 156.354 27.0344 156.354 28.8V33.2C156.354 34.9655 156.711 36.0225 157.344 36.6555C157.977 37.2885 159.034 37.6458 160.8 37.6458C161.18 37.6458 161.487 37.9536 161.487 38.3333C161.487 38.713 161.18 39.0208 160.8 39.0208C158.899 39.0208 157.389 38.6448 156.372 37.6278C155.355 36.6107 154.979 35.1011 154.979 33.2V28.8C154.979 26.8988 155.355 25.3892 156.372 24.3722Z" fill="#F1F1F1"/>
<path fill-rule="evenodd" clip-rule="evenodd" d="M158.675 26.6753C159.383 25.9676 160.411 25.7291 161.625 25.7291H164.375C165.713 25.7291 166.827 26.0167 167.528 26.9085C167.763 27.2071 167.711 27.6393 167.412 27.8739C167.114 28.1085 166.681 28.0566 166.447 27.758C166.139 27.3666 165.567 27.1041 164.375 27.1041H161.625C160.547 27.1041 159.971 27.3239 159.648 27.6476C159.324 27.9712 159.104 28.5469 159.104 29.625V32.375C159.104 33.5667 159.367 34.1422 159.753 34.4499C160.05 34.6865 160.098 35.1191 159.862 35.416C159.625 35.7129 159.193 35.7617 158.896 35.5251C158.017 34.8244 157.729 33.7132 157.729 32.375V29.625C157.729 28.4113 157.968 27.3829 158.675 26.6753Z" fill="#F1F1F1"/>
<path fill-rule="evenodd" clip-rule="evenodd" d="M159.342 21.1458C159.722 21.1458 160.03 21.4536 160.03 21.8333V23.6666C160.03 24.0463 159.722 24.3541 159.342 24.3541C158.963 24.3541 158.655 24.0463 158.655 23.6666V21.8333C158.655 21.4536 158.963 21.1458 159.342 21.1458Z" fill="#F1F1F1"/>
<path fill-rule="evenodd" clip-rule="evenodd" d="M163 21.1458C163.38 21.1458 163.688 21.4536 163.688 21.8333V23.6666C163.688 24.0463 163.38 24.3541 163 24.3541C162.62 24.3541 162.312 24.0463 162.312 23.6666V21.8333C162.312 21.4536 162.62 21.1458 163 21.1458Z" fill="#F1F1F1"/>
<path fill-rule="evenodd" clip-rule="evenodd" d="M166.667 21.1458C167.046 21.1458 167.354 21.4536 167.354 21.8333V23.6666C167.354 24.0463 167.046 24.3541 166.667 24.3541C166.287 24.3541 165.979 24.0463 165.979 23.6666V21.8333C165.979 21.4536 166.287 21.1458 166.667 21.1458Z" fill="#F1F1F1"/>
<path fill-rule="evenodd" clip-rule="evenodd" d="M169.646 27.3333C169.646 26.9536 169.954 26.6458 170.333 26.6458H172.167C172.546 26.6458 172.854 26.9536 172.854 27.3333C172.854 27.713 172.546 28.0208 172.167 28.0208H170.333C169.954 28.0208 169.646 27.713 169.646 27.3333Z" fill="#F1F1F1"/>
<path fill-rule="evenodd" clip-rule="evenodd" d="M159.342 37.6458C159.722 37.6458 160.03 37.9536 160.03 38.3333V40.1666C160.03 40.5463 159.722 40.8541 159.342 40.8541C158.963 40.8541 158.655 40.5463 158.655 40.1666V38.3333C158.655 37.9536 158.963 37.6458 159.342 37.6458Z" fill="#F1F1F1"/>
<path fill-rule="evenodd" clip-rule="evenodd" d="M153.146 27.3333C153.146 26.9536 153.454 26.6458 153.833 26.6458H155.667C156.046 26.6458 156.354 26.9536 156.354 27.3333C156.354 27.713 156.046 28.0208 155.667 28.0208H153.833C153.454 28.0208 153.146 27.713 153.146 27.3333Z" fill="#F1F1F1"/>
<path fill-rule="evenodd" clip-rule="evenodd" d="M153.146 31C153.146 30.6203 153.454 30.3125 153.833 30.3125H155.667C156.046 30.3125 156.354 30.6203 156.354 31C156.354 31.3797 156.046 31.6875 155.667 31.6875H153.833C153.454 31.6875 153.146 31.3797 153.146 31Z" fill="#F1F1F1"/>
<path fill-rule="evenodd" clip-rule="evenodd" d="M153.146 34.6666C153.146 34.2869 153.454 33.9791 153.833 33.9791H155.667C156.046 33.9791 156.354 34.2869 156.354 34.6666C156.354 35.0463 156.046 35.3541 155.667 35.3541H153.833C153.454 35.3541 153.146 35.0463 153.146 34.6666Z" fill="#F1F1F1"/>
<path fill-rule="evenodd" clip-rule="evenodd" d="M167.317 34.8133C166.892 34.8133 166.548 35.158 166.548 35.5833C166.548 36.0086 166.892 36.3533 167.317 36.3533C167.743 36.3533 168.088 36.0086 168.088 35.5833C168.088 35.158 167.743 34.8133 167.317 34.8133ZM165.173 35.5833C165.173 34.3986 166.133 33.4383 167.317 33.4383C168.502 33.4383 169.463 34.3986 169.463 35.5833C169.463 36.7679 168.502 37.7283 167.317 37.7283C166.133 37.7283 165.173 36.7679 165.173 35.5833Z" fill="#F1F1F1"/>
<path fill-rule="evenodd" clip-rule="evenodd" d="M165.865 31.755C165.821 31.6807 165.742 31.675 165.698 31.7008L165.693 31.7041L164.85 32.1951C164.744 32.2543 164.704 32.3967 164.767 32.5053L164.768 32.5075C165.062 33.0148 165.175 33.6346 164.865 34.1719C164.556 34.7098 163.963 34.9233 163.376 34.9233C163.251 34.9233 163.147 35.028 163.147 35.1525V36.005C163.147 36.1457 163.256 36.2362 163.363 36.2343L163.376 36.2341C163.963 36.2341 164.556 36.4477 164.865 36.9856C165.175 37.5229 165.062 38.1427 164.768 38.65L164.767 38.6522C164.708 38.7542 164.737 38.8964 164.859 38.9676C164.859 38.9676 164.859 38.9677 164.859 38.9676L165.689 39.4514C165.749 39.4845 165.828 39.4645 165.865 39.4025L165.866 39.4005L165.919 39.3131C166.212 38.8091 166.691 38.4044 167.308 38.4044C167.926 38.4044 168.405 38.8091 168.698 39.3132L168.752 39.4025C168.796 39.4768 168.875 39.4825 168.918 39.4567L168.924 39.4534L169.767 38.9624C169.872 38.9032 169.913 38.7608 169.849 38.6522L169.848 38.65C169.555 38.1427 169.442 37.5229 169.751 36.9856C170.061 36.4477 170.654 36.2342 171.241 36.2342C171.365 36.2342 171.47 36.1295 171.47 36.005V35.1525C171.47 35.028 171.365 34.9233 171.241 34.9233C170.654 34.9233 170.061 34.7098 169.751 34.1719C169.442 33.6346 169.555 33.0148 169.848 32.5075L169.849 32.5053C169.909 32.4032 169.88 32.261 169.758 32.1898C169.758 32.1897 169.758 32.1898 169.758 32.1898L168.928 31.7061C168.868 31.673 168.788 31.693 168.752 31.755L168.75 31.7571L168.698 31.8444C168.405 32.3484 167.926 32.7531 167.308 32.7531C166.691 32.7531 166.212 32.3484 165.919 31.8444L165.865 31.755ZM167.046 31.0505C166.632 30.3567 165.724 30.0878 164.998 30.5173L164.17 30.9995C163.4 31.4366 163.131 32.4272 163.579 33.1967C163.678 33.3696 163.677 33.4579 163.672 33.4852C163.651 33.5029 163.575 33.5483 163.376 33.5483C162.492 33.5483 161.772 34.2686 161.772 35.1525V36.005C161.772 36.8884 162.484 37.6212 163.381 37.6092C163.576 37.6099 163.651 37.6547 163.672 37.6723C163.677 37.6996 163.678 37.7879 163.579 37.9608C163.126 38.7385 163.409 39.7136 164.166 40.1555L165.001 40.6416L165.006 40.6444C165.715 41.05 166.624 40.8136 167.046 40.107C167.046 40.1066 167.046 40.1062 167.047 40.1058L167.1 40.0162L167.106 40.0067C167.205 39.8351 167.282 39.7916 167.308 39.7814C167.335 39.7916 167.411 39.8351 167.511 40.0067L167.57 40.1058C167.57 40.1062 167.571 40.1066 167.571 40.107C167.985 40.8008 168.893 41.0697 169.618 40.6402L170.446 40.158C171.217 39.7209 171.486 38.7303 171.038 37.9608C170.938 37.788 170.94 37.6996 170.945 37.6723C170.966 37.6546 171.042 37.6092 171.241 37.6092C172.125 37.6092 172.845 36.8889 172.845 36.005V35.1525C172.845 34.2686 172.125 33.5483 171.241 33.5483C171.042 33.5483 170.966 33.5029 170.945 33.4852C170.94 33.4579 170.938 33.3695 171.038 33.1966C171.491 32.419 171.208 31.4438 170.451 31.002L169.616 30.5159L169.611 30.5131C168.901 30.1075 167.992 30.3439 167.571 31.0505C167.571 31.0509 167.57 31.0513 167.57 31.0517L167.516 31.1413L167.511 31.1508C167.411 31.3224 167.335 31.3659 167.308 31.3761C167.282 31.3659 167.205 31.3224 167.106 31.1508L167.047 31.0517C167.046 31.0513 167.046 31.0509 167.046 31.0505Z" fill="#F1F1F1"/>
<path fill-rule="evenodd" clip-rule="evenodd" d="M207 22.5208C202.32 22.5208 198.521 26.3197 198.521 31C198.521 35.6803 202.32 39.4791 207 39.4791C211.68 39.4791 215.479 35.6803 215.479 31C215.479 26.3197 211.68 22.5208 207 22.5208ZM197.146 31C197.146 25.5603 201.56 21.1458 207 21.1458C212.44 21.1458 216.854 25.5603 216.854 31C216.854 36.4397 212.44 40.8541 207 40.8541C201.56 40.8541 197.146 36.4397 197.146 31Z" fill="#F1F1F1"/>
<path fill-rule="evenodd" clip-rule="evenodd" d="M206.661 26.1967C207.041 26.1967 207.348 26.5045 207.348 26.8842V30.6425C207.348 30.7832 207.402 30.9872 207.522 31.1968C207.641 31.4064 207.789 31.5564 207.91 31.6277L207.911 31.6288L207.911 31.6288L210.753 33.3246C211.079 33.5192 211.186 33.9413 210.991 34.2673C210.797 34.5934 210.375 34.6999 210.049 34.5054L207.209 32.8106C207.208 32.8104 207.208 32.8102 207.208 32.81C206.834 32.588 206.533 32.2387 206.327 31.878C206.121 31.5169 205.973 31.0792 205.973 30.6425V26.8842C205.973 26.5045 206.281 26.1967 206.661 26.1967Z" fill="#F1F1F1"/>
<path fill-rule="evenodd" clip-rule="evenodd" d="M254.145 38.334C254.145 37.7012 253.632 37.1882 252.999 37.1882C252.366 37.1882 251.853 37.7012 251.853 38.334C251.853 38.9668 252.366 39.4798 252.999 39.4798C253.632 39.4798 254.145 38.9668 254.145 38.334ZM252.999 35.8132C254.391 35.8132 255.52 36.9418 255.52 38.334C255.52 39.7262 254.391 40.8548 252.999 40.8548C251.606 40.8548 250.478 39.7262 250.478 38.334C250.478 36.9418 251.606 35.8132 252.999 35.8132Z" fill="#F1F1F1"/>
<path fill-rule="evenodd" clip-rule="evenodd" d="M261.478 38.334C261.478 37.7012 260.965 37.1882 260.332 37.1882C259.699 37.1882 259.186 37.7012 259.186 38.334C259.186 38.9668 259.699 39.4798 260.332 39.4798C260.965 39.4798 261.478 38.9668 261.478 38.334ZM260.332 35.8132C261.724 35.8132 262.853 36.9418 262.853 38.334C262.853 39.7262 261.724 40.8548 260.332 40.8548C258.94 40.8548 257.811 39.7262 257.811 38.334C257.811 36.9418 258.94 35.8132 260.332 35.8132Z" fill="#F1F1F1"/>
<path fill-rule="evenodd" clip-rule="evenodd" d="M246.811 38.334C246.811 37.7012 246.298 37.1882 245.665 37.1882C245.033 37.1882 244.52 37.7012 244.52 38.334C244.52 38.9668 245.033 39.4798 245.665 39.4798C246.298 39.4798 246.811 38.9668 246.811 38.334ZM245.665 35.8132C247.058 35.8132 248.186 36.9418 248.186 38.334C248.186 39.7262 247.058 40.8548 245.665 40.8548C244.273 40.8548 243.145 39.7262 243.145 38.334C243.145 36.9418 244.273 35.8132 245.665 35.8132Z" fill="#F1F1F1"/>
<path fill-rule="evenodd" clip-rule="evenodd" d="M254.145 23.6673C254.145 23.0345 253.632 22.5215 252.999 22.5215C252.366 22.5215 251.853 23.0345 251.853 23.6673C251.853 24.3001 252.366 24.8132 252.999 24.8132C253.632 24.8132 254.145 24.3001 254.145 23.6673ZM252.999 21.1465C254.391 21.1465 255.52 22.2751 255.52 23.6673C255.52 25.0595 254.391 26.1882 252.999 26.1882C251.606 26.1882 250.478 25.0595 250.478 23.6673C250.478 22.2751 251.606 21.1465 252.999 21.1465Z" fill="#F1F1F1"/>
<path fill-rule="evenodd" clip-rule="evenodd" d="M252.999 24.8132C253.378 24.8132 253.686 25.121 253.686 25.5007L253.686 36.5007C253.686 36.8804 253.378 37.1882 252.999 37.1882C252.619 37.1882 252.311 36.8804 252.311 36.5007L252.311 25.5007C252.311 25.121 252.619 24.8132 252.999 24.8132Z" fill="#F1F1F1"/>
<path fill-rule="evenodd" clip-rule="evenodd" d="M260.131 30.2853C260.763 30.9181 261.02 31.8113 261.02 32.834L261.02 36.5007C261.02 36.8803 260.712 37.1882 260.332 37.1882C259.952 37.1882 259.645 36.8803 259.645 36.5007L259.645 32.834C259.645 32.0233 259.442 31.5415 259.158 31.2576C258.874 30.9737 258.393 30.7715 257.582 30.7715L248.415 30.7715C247.605 30.7715 247.123 30.9737 246.839 31.2576C246.555 31.5415 246.353 32.0233 246.353 32.834L246.353 36.5007C246.353 36.8803 246.045 37.1882 245.665 37.1882C245.286 37.1882 244.978 36.8803 244.978 36.5007L244.978 32.834C244.978 31.8113 245.234 30.9181 245.867 30.2853C246.499 29.6526 247.393 29.3965 248.415 29.3965L257.582 29.3965C258.605 29.3965 259.498 29.6526 260.131 30.2853Z" fill="#F1F1F1"/>
<path fill-rule="evenodd" clip-rule="evenodd" d="M300.417 22.5208C299.486 22.5208 298.74 23.2672 298.74 24.1983C298.74 25.0947 299.429 25.8172 300.302 25.8738C300.375 25.8673 300.45 25.8673 300.524 25.8738C301.395 25.8173 302.087 25.0957 302.095 24.1959C302.094 23.2733 301.346 22.5208 300.417 22.5208ZM297.365 24.1983C297.365 22.5078 298.727 21.1458 300.417 21.1458C302.11 21.1458 303.47 22.5187 303.47 24.1983V24.2032H303.47C303.458 25.8522 302.16 27.1911 300.525 27.2504C300.487 27.2517 300.45 27.25 300.413 27.2453C300.376 27.25 300.338 27.2517 300.301 27.2504C298.667 27.1911 297.365 25.852 297.365 24.1983Z" fill="#F1F1F1"/>
<path fill-rule="evenodd" clip-rule="evenodd" d="M299.41 28.1136C300.803 27.8695 302.392 28.1022 303.548 28.8688L303.549 28.8696C304.338 29.396 304.824 30.1588 304.824 31.0091C304.824 31.8595 304.338 32.6223 303.549 33.1487C302.402 33.9161 300.832 34.148 299.442 33.9147C299.068 33.8518 298.815 33.4973 298.878 33.1228C298.941 32.7484 299.295 32.4958 299.67 32.5586C300.791 32.7468 301.988 32.539 302.785 32.0054L302.786 32.0046C303.289 31.6693 303.449 31.2954 303.449 31.0091C303.449 30.723 303.289 30.3493 302.787 30.0141C301.98 29.4793 300.765 29.2722 299.647 29.468C299.273 29.5335 298.917 29.2834 298.851 28.9094C298.786 28.5354 299.036 28.1791 299.41 28.1136Z" fill="#F1F1F1"/>
<path fill-rule="evenodd" clip-rule="evenodd" d="M286.502 24.1983C286.502 22.5187 287.863 21.1458 289.555 21.1458C291.246 21.1458 292.607 22.5078 292.607 24.1983C292.607 25.852 291.306 27.1911 289.672 27.2504C289.634 27.2517 289.597 27.25 289.56 27.2453C289.522 27.25 289.485 27.2517 289.448 27.2504C287.812 27.1911 286.514 25.8522 286.503 24.2032L286.502 24.1983ZM287.877 24.1959C287.885 25.0957 288.578 25.8173 289.449 25.8738C289.522 25.8673 289.597 25.8673 289.67 25.8738C290.543 25.8172 291.232 25.0947 291.232 24.1983C291.232 23.2672 290.486 22.5208 289.555 22.5208C288.626 22.5208 287.879 23.2733 287.877 24.1959Z" fill="#F1F1F1"/>
<path fill-rule="evenodd" clip-rule="evenodd" d="M287.186 30.0141C287.992 29.4793 289.208 29.2722 290.326 29.468C290.7 29.5335 291.056 29.2834 291.121 28.9094C291.187 28.5354 290.937 28.1791 290.563 28.1136C289.169 27.8695 287.58 28.1022 286.425 28.8688L286.425 28.8688L286.424 28.8696C285.634 29.396 285.148 30.1588 285.148 31.0091C285.148 31.8593 285.634 32.6219 286.423 33.1483C287.57 33.9161 289.14 34.1481 290.53 33.9147C290.905 33.8518 291.158 33.4973 291.095 33.1228C291.032 32.7484 290.677 32.4958 290.303 32.5586C289.182 32.7468 287.984 32.539 287.188 32.0054L287.186 32.0046C286.683 31.6693 286.523 31.2954 286.523 31.0091C286.523 30.723 286.683 30.3493 287.186 30.0141Z" fill="#F1F1F1"/>
<path fill-rule="evenodd" clip-rule="evenodd" d="M294.917 29.3683C293.986 29.3683 293.24 30.1146 293.24 31.0458C293.24 31.9422 293.929 32.6647 294.802 32.7213C294.876 32.7147 294.953 32.7148 295.027 32.7216C295.891 32.672 296.587 31.9481 296.595 31.0433C296.594 30.1207 295.846 29.3683 294.917 29.3683ZM291.865 31.0458C291.865 29.3553 293.227 27.9933 294.917 27.9933C296.61 27.9933 297.97 29.3662 297.97 31.0458V31.0507H297.97C297.958 32.6953 296.664 34.0504 295.02 34.098C294.984 34.099 294.948 34.0973 294.913 34.0928C294.876 34.0975 294.838 34.0992 294.801 34.0978C293.167 34.0386 291.865 32.6995 291.865 31.0458Z" fill="#F1F1F1"/>
<path fill-rule="evenodd" clip-rule="evenodd" d="M295.003 34.882C296.075 34.882 297.183 35.1488 298.049 35.7262C298.838 36.2526 299.324 37.0154 299.324 37.8658C299.324 38.716 298.839 39.4787 298.049 40.0051C297.179 40.5866 296.072 40.8564 295 40.8564C293.928 40.8564 292.821 40.5866 291.951 40.0051C291.161 39.4787 290.676 38.716 290.676 37.8658C290.676 37.0154 291.162 36.2526 291.951 35.7262L291.953 35.7251L291.953 35.7251C292.823 35.1488 293.932 34.882 295.003 34.882ZM292.713 36.8708C292.211 37.206 292.051 37.5796 292.051 37.8658C292.051 38.1521 292.211 38.526 292.714 38.8612L292.715 38.8618C293.311 39.2608 294.138 39.4814 295 39.4814C295.862 39.4814 296.689 39.2608 297.285 38.8618L297.286 38.8612C297.789 38.526 297.949 38.1521 297.949 37.8658C297.949 37.5795 297.789 37.2056 297.286 36.8703C296.695 36.4761 295.869 36.257 295.003 36.257C294.139 36.257 293.31 36.4758 292.713 36.8708Z" fill="#F1F1F1"/>
<path fill-rule="evenodd" clip-rule="evenodd" d="M338.807 23.1579C338.467 23.1579 338.164 23.2175 337.97 23.3041L337.968 23.305L332.558 25.7073C331.848 26.0206 331.8 26.304 331.8 26.3341C331.8 26.3643 331.848 26.6477 332.558 26.961L332.56 26.9616L337.97 29.3642C338.164 29.4508 338.467 29.5104 338.807 29.5104C339.148 29.5104 339.451 29.4508 339.645 29.3642L339.647 29.3633L345.055 26.9616L345.057 26.961C345.767 26.6477 345.815 26.3643 345.815 26.3341C345.815 26.304 345.767 26.0206 345.057 25.7073L339.647 23.305L339.645 23.3041C339.451 23.2175 339.148 23.1579 338.807 23.1579ZM340.206 22.0487C339.785 21.8607 339.277 21.7829 338.807 21.7829C338.338 21.7829 337.83 21.8607 337.409 22.0487C337.409 22.0489 337.409 22.049 337.408 22.0492L332.003 24.4493C332.003 24.4494 332.004 24.4492 332.003 24.4493C331.155 24.8236 330.425 25.4524 330.425 26.3341C330.425 27.2158 331.155 27.8444 332.003 28.2186C332.002 28.2185 332.003 28.2187 332.003 28.2186L337.408 30.6191C337.409 30.6193 337.409 30.6195 337.409 30.6196C337.83 30.8077 338.338 30.8854 338.807 30.8854C339.277 30.8854 339.785 30.8077 340.206 30.6196C340.206 30.6194 340.206 30.6193 340.207 30.6191L345.612 28.219C345.611 28.2191 345.612 28.2189 345.612 28.219C346.46 27.8447 347.19 27.2159 347.19 26.3341C347.19 25.4524 346.46 24.8238 345.612 24.4496C345.612 24.4495 345.613 24.4497 345.612 24.4496L340.207 22.0492C340.206 22.049 340.206 22.0489 340.206 22.0487Z" fill="#F1F1F1"/>
<path fill-rule="evenodd" clip-rule="evenodd" d="M330.75 29.3958C331.13 29.3958 331.438 29.7036 331.438 30.0833C331.438 30.3064 331.526 30.5929 331.703 30.8657C331.881 31.1384 332.107 31.335 332.311 31.4252L332.313 31.426L338.536 34.1937C338.535 34.1936 338.536 34.1938 338.536 34.1937C338.837 34.3267 339.174 34.3247 339.46 34.1958L339.463 34.1943L345.687 31.426L345.689 31.4252C345.893 31.335 346.119 31.1384 346.297 30.8657C346.474 30.5929 346.562 30.3064 346.562 30.0833C346.562 29.7036 346.87 29.3958 347.25 29.3958C347.63 29.3958 347.938 29.7036 347.938 30.0833C347.938 30.6302 347.737 31.1733 347.449 31.6155C347.162 32.0575 346.746 32.4612 346.245 32.6827C346.245 32.6828 346.245 32.6826 346.245 32.6827L340.025 35.4492C340.025 35.4495 340.024 35.4497 340.023 35.45C339.375 35.7418 338.631 35.7394 337.979 35.4512L331.756 32.6831C331.755 32.6829 331.755 32.6828 331.755 32.6826C331.254 32.4611 330.838 32.0575 330.551 31.6155C330.263 31.1733 330.062 30.6302 330.062 30.0833C330.062 29.7036 330.37 29.3958 330.75 29.3958Z" fill="#F1F1F1"/>
<path fill-rule="evenodd" clip-rule="evenodd" d="M330.75 33.9791C331.13 33.9791 331.438 34.2869 331.438 34.6666C331.438 35.2448 331.779 35.7706 332.313 36.0096C332.313 36.0095 332.314 36.0097 332.313 36.0096L338.536 38.777C338.535 38.7769 338.536 38.7771 338.536 38.777C338.837 38.91 339.174 38.908 339.46 38.7791L339.463 38.7776L345.686 36.0098C345.686 36.0099 345.686 36.0097 345.686 36.0098C346.22 35.7708 346.562 35.2448 346.562 34.6666C346.562 34.2869 346.87 33.9791 347.25 33.9791C347.63 33.9791 347.938 34.2869 347.938 34.6666C347.938 35.7932 347.271 36.8073 346.247 37.2651L346.246 37.2656L340.025 40.0325C340.025 40.0328 340.024 40.0331 340.023 40.0333C339.375 40.3252 338.631 40.3227 337.979 40.0345L331.753 37.2651C330.729 36.8073 330.062 35.7932 330.062 34.6666C330.062 34.2869 330.37 33.9791 330.75 33.9791Z" fill="#F1F1F1"/>
<path fill-rule="evenodd" clip-rule="evenodd" d="M383 28.9375C381.861 28.9375 380.937 29.8609 380.937 31C380.937 32.1391 381.861 33.0625 383 33.0625C384.139 33.0625 385.062 32.1391 385.062 31C385.062 29.8609 384.139 28.9375 383 28.9375ZM379.562 31C379.562 29.1015 381.102 27.5625 383 27.5625C384.898 27.5625 386.437 29.1015 386.437 31C386.437 32.8985 384.898 34.4375 383 34.4375C381.102 34.4375 379.562 32.8985 379.562 31Z" fill="#F1F1F1"/>
<path fill-rule="evenodd" clip-rule="evenodd" d="M380.803 23.456C380.558 23.0472 380.041 22.92 379.657 23.1483L379.647 23.1543L378.061 24.0617C377.56 24.3484 377.387 24.9985 377.674 25.4952L377.078 25.8392L377.673 25.4944C378.164 26.3406 378.295 27.2681 377.857 28.0284C377.419 28.7886 376.551 29.1392 375.575 29.1392C374.995 29.1392 374.521 29.6173 374.521 30.1933V31.8067C374.521 32.3827 374.995 32.8608 375.575 32.8608C376.551 32.8608 377.419 33.2114 377.857 33.9716C378.295 34.7318 378.164 35.6591 377.673 36.5053C377.387 37.0019 377.56 37.6515 378.061 37.9381L379.657 38.8516C380.041 39.0799 380.558 38.9528 380.803 38.544L380.902 38.3739C381.392 37.528 382.131 36.9515 383.008 36.9515C383.886 36.9515 384.622 37.5284 385.108 38.3753C385.109 38.3757 385.109 38.376 385.109 38.3764L385.206 38.544C385.451 38.9528 385.968 39.08 386.352 38.8517L386.362 38.8457L387.948 37.9383C388.448 37.6523 388.624 37.0113 388.335 36.5035C387.845 35.6578 387.714 34.7313 388.152 33.9716C388.59 33.2114 389.458 32.8608 390.434 32.8608C391.015 32.8608 391.488 32.3827 391.488 31.8067V30.1933C391.488 29.6129 391.01 29.1392 390.434 29.1392C389.458 29.1392 388.59 28.7886 388.152 28.0284C387.714 27.2682 387.845 26.341 388.336 25.4949C388.622 24.9982 388.45 24.3486 387.948 24.0619L386.352 23.1484C385.968 22.9201 385.451 23.0472 385.206 23.456L385.107 23.6261C384.617 24.472 383.878 25.0485 383.001 25.0485C382.124 25.0485 381.387 24.4717 380.901 23.625C380.901 23.6245 380.9 23.6241 380.9 23.6236L380.803 23.456ZM378.96 21.9634C380.023 21.3352 381.371 21.7206 381.987 22.756L381.991 22.763L382.092 22.9372L382.093 22.9398C382.432 23.5314 382.786 23.6735 383.001 23.6735C383.217 23.6735 383.574 23.5302 383.918 22.9372C383.917 22.9373 383.918 22.9371 383.918 22.9372L384.022 22.756C384.638 21.7206 385.987 21.3352 387.049 21.9634L388.63 22.8681C389.797 23.5347 390.192 25.0299 389.526 26.1831L389.526 26.1839C389.182 26.7769 389.236 27.1557 389.343 27.3418C389.451 27.5281 389.751 27.7642 390.434 27.7642C391.765 27.7642 392.863 28.8488 392.863 30.1933V31.8067C392.863 33.1373 391.779 34.2358 390.434 34.2358C389.751 34.2358 389.451 34.4719 389.343 34.6582C389.236 34.8443 389.182 35.2231 389.526 35.8161L389.528 35.8197C390.191 36.9799 389.798 38.4645 388.631 39.1317C388.631 39.1318 388.631 39.1316 388.631 39.1317L387.049 40.0366C385.987 40.6648 384.638 40.2794 384.022 39.244L384.018 39.237L383.918 39.0628L383.916 39.0602C383.577 38.4686 383.223 38.3265 383.008 38.3265C382.792 38.3265 382.435 38.4698 382.092 39.0628C382.092 39.0629 382.092 39.0627 382.092 39.0628L381.987 39.244C381.371 40.2794 380.023 40.6648 378.96 40.0366L377.379 39.1319C377.379 39.1318 377.379 39.132 377.379 39.1319C376.213 38.4652 375.817 36.97 376.483 35.8169L376.484 35.8161C376.827 35.2231 376.773 34.8443 376.666 34.6582C376.559 34.4719 376.258 34.2358 375.575 34.2358C374.23 34.2358 373.146 33.1373 373.146 31.8067V30.1933C373.146 28.8627 374.23 27.7642 375.575 27.7642C376.258 27.7642 376.559 27.5281 376.666 27.3418C376.773 27.1557 376.827 26.7769 376.484 26.1839L376.483 26.1831C375.817 25.03 376.212 23.535 377.379 22.8683L378.96 21.9634Z" fill="#F1F1F1"/>
<path fill-rule="evenodd" clip-rule="evenodd" d="M31 61C31.5523 61 32 61.4477 32 62V69H39C39.5523 69 40 69.4477 40 70C40 70.5523 39.5523 71 39 71H32V78C32 78.5523 31.5523 79 31 79C30.4477 79 30 78.5523 30 78V71H23C22.4477 71 22 70.5523 22 70C22 69.4477 22.4477 69 23 69H30V62C30 61.4477 30.4477 61 31 61Z" fill="#F1F1F1"/>
<path fill-rule="evenodd" clip-rule="evenodd" d="M75.7657 63.2278C75.4533 62.9241 74.9467 62.9241 74.6343 63.2278L68.2343 69.45C68.0843 69.5959 68 69.7937 68 70C68 70.2063 68.0843 70.4041 68.2343 70.55L74.6343 76.7722C74.9467 77.0759 75.4533 77.0759 75.7657 76.7722C76.0781 76.4685 76.0781 75.976 75.7657 75.6723L69.9314 70L75.7657 64.3277C76.0781 64.024 76.0781 63.5315 75.7657 63.2278Z" fill="#F1F1F1"/>
<path fill-rule="evenodd" clip-rule="evenodd" d="M109.542 60.5208C105.112 60.5208 101.521 64.1119 101.521 68.5416C101.521 72.9714 105.112 76.5625 109.542 76.5625C113.971 76.5625 117.563 72.9714 117.563 68.5416C117.563 64.1119 113.971 60.5208 109.542 60.5208ZM100.146 68.5416C100.146 63.3525 104.353 59.1458 109.542 59.1458C114.731 59.1458 118.938 63.3525 118.938 68.5416C118.938 73.7308 114.731 77.9375 109.542 77.9375C104.353 77.9375 100.146 73.7308 100.146 68.5416Z" fill="white"/>
<path fill-rule="evenodd" clip-rule="evenodd" d="M116.847 75.8472C117.116 75.5787 117.551 75.5787 117.819 75.8472L119.653 77.6805C119.921 77.949 119.921 78.3843 119.653 78.6528C119.384 78.9213 118.949 78.9213 118.681 78.6528L116.847 76.8194C116.579 76.551 116.579 76.1157 116.847 75.8472Z" fill="white"/>
<path fill-rule="evenodd" clip-rule="evenodd" d="M148.831 67.1675C148.831 63.7536 151.604 60.98 155.018 60.98C158.423 60.98 161.206 63.7628 161.206 67.1675V69.8166C161.206 70.0136 161.25 70.3019 161.335 70.6099C161.418 70.9142 161.526 71.1847 161.624 71.3564L162.675 73.1021C163.505 74.4856 162.842 76.2878 161.313 76.7941C157.221 78.161 152.806 78.1608 148.714 76.7937L148.711 76.7929C147.939 76.5315 147.36 75.9911 147.101 75.2918C146.842 74.5917 146.93 73.8037 147.353 73.1014L148.405 71.3529C148.406 71.3525 148.406 71.3522 148.406 71.3518C148.506 71.183 148.616 70.9135 148.701 70.6079C148.786 70.3013 148.831 70.0134 148.831 69.8166V67.1675ZM155.018 62.355C152.364 62.355 150.206 64.513 150.206 67.1675V69.8166C150.206 70.1791 150.131 70.597 150.026 70.9756C149.921 71.3545 149.77 71.7491 149.586 72.057L149.585 72.0596L148.531 73.8103C148.531 73.8103 148.531 73.8102 148.531 73.8103C148.303 74.1895 148.29 74.5428 148.39 74.8144C148.491 75.0865 148.732 75.348 149.151 75.49C152.96 76.7623 157.069 76.7622 160.878 75.4896L160.88 75.4889C161.568 75.2614 161.876 74.4428 161.497 73.81C161.497 73.8099 161.497 73.8102 161.497 73.81L160.436 72.0486C160.26 71.7434 160.113 71.3515 160.009 70.9736C159.905 70.5964 159.831 70.1789 159.831 69.8166V67.1675C159.831 64.5222 157.664 62.355 155.018 62.355Z" fill="white"/>
<path fill-rule="evenodd" clip-rule="evenodd" d="M152.682 61.6825C153.049 60.7481 153.958 60.0908 155.018 60.0908C156.079 60.0908 156.988 60.7481 157.354 61.6825C157.45 61.9264 157.399 62.2034 157.222 62.3969C157.045 62.5903 156.774 62.6666 156.522 62.5936C156.268 62.5197 156.012 62.464 155.751 62.4325L155.749 62.4322C154.957 62.3331 154.208 62.3919 153.514 62.5935C153.263 62.6666 152.992 62.5904 152.815 62.3969C152.638 62.2035 152.587 61.9264 152.682 61.6825Z" fill="white"/>
<path fill-rule="evenodd" clip-rule="evenodd" d="M152.956 76.4717C152.956 77.0332 153.189 77.5571 153.561 77.9289C153.933 78.3006 154.457 78.5342 155.018 78.5342C156.151 78.5342 157.081 77.6045 157.081 76.4717H158.456C158.456 78.3639 156.911 79.9092 155.018 79.9092C154.076 79.9092 153.207 79.5194 152.589 78.9011C151.971 78.2829 151.581 77.4135 151.581 76.4717H152.956Z" fill="white"/>
<path d="M188.812 67.5022C188.989 67.0014 189.336 66.579 189.794 66.31C190.252 66.0409 190.79 65.9426 191.314 66.0324C191.837 66.1221 192.312 66.3942 192.653 66.8004C192.995 67.2066 193.183 67.7207 193.182 68.2517C193.182 69.7506 190.933 70.5 190.933 70.5M190.961 73.5H190.971M200 70C200 74.9706 195.971 79 191 79C186.029 79 182 74.9706 182 70C182 65.0294 186.029 61 191 61C195.971 61 200 65.0294 200 70Z" stroke="white" stroke-width="1.5" stroke-linecap="round" stroke-linejoin="round"/>
<path fill-rule="evenodd" clip-rule="evenodd" d="M222 78.75C222 78.3358 222.336 78 222.75 78H240.75C241.164 78 241.5 78.3358 241.5 78.75C241.5 79.1642 241.164 79.5 240.75 79.5H222.75C222.336 79.5 222 79.1642 222 78.75Z" fill="white"/>
<path fill-rule="evenodd" clip-rule="evenodd" d="M222 66.1309C222 65.1666 222.786 64.3809 223.75 64.3809H225.35C226.314 64.3809 227.1 65.1666 227.1 66.1309V74.7509C227.1 75.7151 226.314 76.5009 225.35 76.5009H223.75C222.786 76.5009 222 75.7151 222 74.7509V66.1309ZM223.75 65.8809C223.614 65.8809 223.5 65.9951 223.5 66.1309V74.7509C223.5 74.8866 223.614 75.0009 223.75 75.0009H225.35C225.486 75.0009 225.6 74.8866 225.6 74.7509V66.1309C225.6 65.9951 225.486 65.8809 225.35 65.8809H223.75Z" fill="white"/>
<path fill-rule="evenodd" clip-rule="evenodd" d="M229.199 62.9395C229.199 61.9752 229.985 61.1895 230.949 61.1895H232.549C233.513 61.1895 234.299 61.9752 234.299 62.9395V74.7495C234.299 75.7137 233.513 76.4995 232.549 76.4995H230.949C229.985 76.4995 229.199 75.7137 229.199 74.7495V62.9395ZM230.949 62.6895C230.813 62.6895 230.699 62.8037 230.699 62.9395V74.7495C230.699 74.8852 230.813 74.9995 230.949 74.9995H232.549C232.685 74.9995 232.799 74.8852 232.799 74.7495V62.9395C232.799 62.8037 232.685 62.6895 232.549 62.6895H230.949Z" fill="white"/>
<path fill-rule="evenodd" clip-rule="evenodd" d="M236.398 59.75C236.398 58.7858 237.184 58 238.148 58H239.748C240.713 58 241.498 58.7858 241.498 59.75V74.75C241.498 75.7142 240.713 76.5 239.748 76.5H238.148C237.184 76.5 236.398 75.7142 236.398 74.75V59.75ZM238.148 59.5C238.013 59.5 237.898 59.6142 237.898 59.75V74.75C237.898 74.8858 238.013 75 238.148 75H239.748C239.884 75 239.998 74.8858 239.998 74.75V59.75C239.998 59.6142 239.884 59.5 239.748 59.5H238.148Z" fill="white"/>
<path fill-rule="evenodd" clip-rule="evenodd" d="M269 60.5208C266.848 60.5208 265.104 62.265 265.104 64.4166C265.104 66.5683 266.848 68.3125 269 68.3125C271.152 68.3125 272.896 66.5683 272.896 64.4166C272.896 62.265 271.152 60.5208 269 60.5208ZM263.729 64.4166C263.729 61.5056 266.089 59.1458 269 59.1458C271.911 59.1458 274.271 61.5056 274.271 64.4166C274.271 67.3276 271.911 69.6875 269 69.6875C266.089 69.6875 263.729 67.3276 263.729 64.4166Z" fill="white"/>
<path fill-rule="evenodd" clip-rule="evenodd" d="M260.438 78.1667C260.438 74.1142 264.414 71.0625 269 71.0625C273.586 71.0625 277.562 74.1142 277.562 78.1667C277.562 78.5464 277.254 78.8542 276.874 78.8542C276.494 78.8542 276.187 78.5464 276.187 78.1667C276.187 75.1241 273.104 72.4375 269 72.4375C264.896 72.4375 261.813 75.1241 261.813 78.1667C261.813 78.5464 261.506 78.8542 261.126 78.8542C260.746 78.8542 260.438 78.5464 260.438 78.1667Z" fill="white"/>
<path fill-rule="evenodd" clip-rule="evenodd" d="M298.952 63.4905C298.952 63.1108 299.26 62.803 299.64 62.803L307.508 62.803C307.691 62.803 307.866 62.8755 307.995 63.0044C308.124 63.1333 308.196 63.3082 308.196 63.4905L308.196 71.3595C308.196 71.7392 307.888 72.047 307.508 72.047C307.129 72.047 306.821 71.7392 306.821 71.3595L306.821 64.178L299.64 64.178C299.26 64.178 298.952 63.8702 298.952 63.4905Z" fill="white"/>
<path fill-rule="evenodd" clip-rule="evenodd" d="M296.003 74.9957C295.735 74.7272 295.735 74.2919 296.003 74.0234L306.912 63.1146C307.181 62.8461 307.616 62.8461 307.884 63.1146C308.153 63.383 308.153 63.8183 307.884 64.0868L296.976 74.9957C296.707 75.2642 296.272 75.2642 296.003 74.9957Z" fill="white"/>
<path fill-rule="evenodd" clip-rule="evenodd" d="M343.509 65.9535C343.889 65.9535 344.197 66.2613 344.197 66.641L344.197 74.51C344.197 74.6923 344.125 74.8672 343.996 74.9961C343.867 75.125 343.692 75.1975 343.509 75.1975L335.641 75.1975C335.261 75.1975 334.953 74.8896 334.953 74.51C334.953 74.1303 335.261 73.8225 335.641 73.8225L342.822 73.8225L342.822 66.641C342.822 66.2613 343.13 65.9535 343.509 65.9535Z" fill="white"/>
<path fill-rule="evenodd" clip-rule="evenodd" d="M332.004 63.0048C332.273 62.7363 332.708 62.7363 332.977 63.0048L343.885 73.9136C344.154 74.1821 344.154 74.6174 343.885 74.8859C343.617 75.1544 343.182 75.1544 342.913 74.8859L332.004 63.977C331.736 63.7085 331.736 63.2732 332.004 63.0048Z" fill="white"/>
</svg>
