<svg width="88" height="156" viewBox="0 0 88 156" fill="none" xmlns="http://www.w3.org/2000/svg">
<rect x="0.5" y="0.5" width="87" height="155" rx="4.5" stroke="#9747FF" stroke-dasharray="10 5"/>
<path fill-rule="evenodd" clip-rule="evenodd" d="M46.0347 35.0347C46.6674 34.402 47.5607 34.1458 48.5833 34.1458H50.4167C51.4393 34.1458 52.3326 34.402 52.9653 35.0347C53.598 35.6674 53.8542 36.5607 53.8542 37.5833V39.4167C53.8542 40.4393 53.598 41.3326 52.9653 41.9653C52.3326 42.5981 51.4393 42.8542 50.4167 42.8542H48.5833C47.5607 42.8542 46.6674 42.5981 46.0347 41.9653C45.402 41.3326 45.1458 40.4393 45.1458 39.4167V37.5833C45.1458 36.5607 45.402 35.6674 46.0347 35.0347ZM47.007 36.007C46.723 36.2909 46.5208 36.7727 46.5208 37.5833V39.4167C46.5208 40.2274 46.723 40.7091 47.007 40.993C47.2909 41.277 47.7726 41.4792 48.5833 41.4792H50.4167C51.2274 41.4792 51.7091 41.277 51.993 40.993C52.277 40.7091 52.4792 40.2274 52.4792 39.4167V37.5833C52.4792 36.7727 52.277 36.2909 51.993 36.007C51.7091 35.7231 51.2274 35.5208 50.4167 35.5208H48.5833C47.7726 35.5208 47.2909 35.7231 47.007 36.007Z" fill="#F1F1F1"/>
<path fill-rule="evenodd" clip-rule="evenodd" d="M35.0347 46.0347C35.6674 45.402 36.5607 45.1458 37.5833 45.1458H39.4167C40.4393 45.1458 41.3326 45.402 41.9653 46.0347C42.598 46.6674 42.8542 47.5607 42.8542 48.5833V50.4167C42.8542 51.4393 42.598 52.3326 41.9653 52.9653C41.3326 53.5981 40.4393 53.8542 39.4167 53.8542H37.5833C36.5607 53.8542 35.6674 53.5981 35.0347 52.9653C34.402 52.3326 34.1458 51.4393 34.1458 50.4167V48.5833C34.1458 47.5607 34.402 46.6674 35.0347 46.0347ZM36.007 47.007C35.723 47.2909 35.5208 47.7727 35.5208 48.5833V50.4167C35.5208 51.2274 35.723 51.7091 36.007 51.993C36.2909 52.277 36.7726 52.4792 37.5833 52.4792H39.4167C40.2274 52.4792 40.7091 52.277 40.993 51.993C41.277 51.7091 41.4792 51.2274 41.4792 50.4167V48.5833C41.4792 47.7727 41.277 47.2909 40.993 47.007C40.7091 46.7231 40.2274 46.5208 39.4167 46.5208H37.5833C36.7726 46.5208 36.2909 46.7231 36.007 47.007Z" fill="#F1F1F1"/>
<path fill-rule="evenodd" clip-rule="evenodd" d="M38.5 35.5208C36.8547 35.5208 35.5208 36.8547 35.5208 38.5C35.5208 40.1454 36.8547 41.4792 38.5 41.4792C40.1454 41.4792 41.4792 40.1454 41.4792 38.5C41.4792 36.8547 40.1454 35.5208 38.5 35.5208ZM34.1458 38.5C34.1458 36.0953 36.0953 34.1458 38.5 34.1458C40.9047 34.1458 42.8542 36.0953 42.8542 38.5C42.8542 40.9047 40.9047 42.8542 38.5 42.8542C36.0953 42.8542 34.1458 40.9047 34.1458 38.5Z" fill="#F1F1F1"/>
<path fill-rule="evenodd" clip-rule="evenodd" d="M49.5 46.5208C47.8547 46.5208 46.5208 47.8547 46.5208 49.5C46.5208 51.1454 47.8547 52.4792 49.5 52.4792C51.1454 52.4792 52.4792 51.1454 52.4792 49.5C52.4792 47.8547 51.1454 46.5208 49.5 46.5208ZM45.1458 49.5C45.1458 47.0953 47.0953 45.1458 49.5 45.1458C51.9047 45.1458 53.8542 47.0953 53.8542 49.5C53.8542 51.9047 51.9047 53.8542 49.5 53.8542C47.0953 53.8542 45.1458 51.9047 45.1458 49.5Z" fill="#F1F1F1"/>
<rect x="21" y="88" width="48" height="48" rx="24" fill="white"/>
<path fill-rule="evenodd" clip-rule="evenodd" d="M47.0347 103.035C47.6674 102.402 48.5607 102.146 49.5833 102.146H51.4167C52.4393 102.146 53.3326 102.402 53.9653 103.035C54.598 103.667 54.8542 104.561 54.8542 105.583V107.417C54.8542 108.439 54.598 109.333 53.9653 109.965C53.3326 110.598 52.4393 110.854 51.4167 110.854H49.5833C48.5607 110.854 47.6674 110.598 47.0347 109.965C46.402 109.333 46.1458 108.439 46.1458 107.417V105.583C46.1458 104.561 46.402 103.667 47.0347 103.035ZM48.007 104.007C47.723 104.291 47.5208 104.773 47.5208 105.583V107.417C47.5208 108.227 47.723 108.709 48.007 108.993C48.2909 109.277 48.7726 109.479 49.5833 109.479H51.4167C52.2274 109.479 52.7091 109.277 52.993 108.993C53.277 108.709 53.4792 108.227 53.4792 107.417V105.583C53.4792 104.773 53.277 104.291 52.993 104.007C52.7091 103.723 52.2274 103.521 51.4167 103.521H49.5833C48.7726 103.521 48.2909 103.723 48.007 104.007Z" fill="#E65F2B"/>
<path fill-rule="evenodd" clip-rule="evenodd" d="M36.0347 114.035C36.6674 113.402 37.5607 113.146 38.5833 113.146H40.4167C41.4393 113.146 42.3326 113.402 42.9653 114.035C43.598 114.667 43.8542 115.561 43.8542 116.583V118.417C43.8542 119.439 43.598 120.333 42.9653 120.965C42.3326 121.598 41.4393 121.854 40.4167 121.854H38.5833C37.5607 121.854 36.6674 121.598 36.0347 120.965C35.402 120.333 35.1458 119.439 35.1458 118.417V116.583C35.1458 115.561 35.402 114.667 36.0347 114.035ZM37.007 115.007C36.723 115.291 36.5208 115.773 36.5208 116.583V118.417C36.5208 119.227 36.723 119.709 37.007 119.993C37.2909 120.277 37.7726 120.479 38.5833 120.479H40.4167C41.2274 120.479 41.7091 120.277 41.993 119.993C42.277 119.709 42.4792 119.227 42.4792 118.417V116.583C42.4792 115.773 42.277 115.291 41.993 115.007C41.7091 114.723 41.2274 114.521 40.4167 114.521H38.5833C37.7726 114.521 37.2909 114.723 37.007 115.007Z" fill="#E65F2B"/>
<path fill-rule="evenodd" clip-rule="evenodd" d="M39.5 103.521C37.8547 103.521 36.5208 104.855 36.5208 106.5C36.5208 108.145 37.8547 109.479 39.5 109.479C41.1454 109.479 42.4792 108.145 42.4792 106.5C42.4792 104.855 41.1454 103.521 39.5 103.521ZM35.1458 106.5C35.1458 104.095 37.0953 102.146 39.5 102.146C41.9047 102.146 43.8542 104.095 43.8542 106.5C43.8542 108.905 41.9047 110.854 39.5 110.854C37.0953 110.854 35.1458 108.905 35.1458 106.5Z" fill="#E65F2B"/>
<path fill-rule="evenodd" clip-rule="evenodd" d="M50.5 114.521C48.8547 114.521 47.5208 115.855 47.5208 117.5C47.5208 119.145 48.8547 120.479 50.5 120.479C52.1454 120.479 53.4792 119.145 53.4792 117.5C53.4792 115.855 52.1454 114.521 50.5 114.521ZM46.1458 117.5C46.1458 115.095 48.0953 113.146 50.5 113.146C52.9047 113.146 54.8542 115.095 54.8542 117.5C54.8542 119.905 52.9047 121.854 50.5 121.854C48.0953 121.854 46.1458 119.905 46.1458 117.5Z" fill="#E65F2B"/>
</svg>
