<svg width="241" height="168" viewBox="0 0 241 168" fill="none" xmlns="http://www.w3.org/2000/svg">
<rect x="0.5" y="0.5" width="240" height="167" rx="4.5" stroke="#9747FF" stroke-dasharray="10 5"/>
<path fill-rule="evenodd" clip-rule="evenodd" d="M49.0347 35.0347C49.6674 34.402 50.5607 34.1458 51.5833 34.1458H53.4167C54.4393 34.1458 55.3326 34.402 55.9653 35.0347C56.5981 35.6674 56.8542 36.5607 56.8542 37.5833V39.4167C56.8542 40.4393 56.5981 41.3326 55.9653 41.9653C55.3326 42.5981 54.4393 42.8542 53.4167 42.8542H51.5833C50.5607 42.8542 49.6674 42.5981 49.0347 41.9653C48.402 41.3326 48.1458 40.4393 48.1458 39.4167V37.5833C48.1458 36.5607 48.402 35.6674 49.0347 35.0347ZM50.007 36.007C49.7231 36.2909 49.5208 36.7727 49.5208 37.5833V39.4167C49.5208 40.2274 49.7231 40.7091 50.007 40.993C50.2909 41.277 50.7727 41.4792 51.5833 41.4792H53.4167C54.2274 41.4792 54.7091 41.277 54.993 40.993C55.277 40.7091 55.4792 40.2274 55.4792 39.4167V37.5833C55.4792 36.7727 55.277 36.2909 54.993 36.007C54.7091 35.7231 54.2274 35.5208 53.4167 35.5208H51.5833C50.7727 35.5208 50.2909 35.7231 50.007 36.007Z" fill="#F1F1F1"/>
<path fill-rule="evenodd" clip-rule="evenodd" d="M38.0347 46.0347C38.6674 45.402 39.5607 45.1458 40.5833 45.1458H42.4167C43.4393 45.1458 44.3326 45.402 44.9653 46.0347C45.5981 46.6674 45.8542 47.5607 45.8542 48.5833V50.4167C45.8542 51.4393 45.5981 52.3326 44.9653 52.9653C44.3326 53.5981 43.4393 53.8542 42.4167 53.8542H40.5833C39.5607 53.8542 38.6674 53.5981 38.0347 52.9653C37.402 52.3326 37.1458 51.4393 37.1458 50.4167V48.5833C37.1458 47.5607 37.402 46.6674 38.0347 46.0347ZM39.007 47.007C38.7231 47.2909 38.5208 47.7727 38.5208 48.5833V50.4167C38.5208 51.2274 38.7231 51.7091 39.007 51.993C39.2909 52.277 39.7727 52.4792 40.5833 52.4792H42.4167C43.2274 52.4792 43.7091 52.277 43.993 51.993C44.277 51.7091 44.4792 51.2274 44.4792 50.4167V48.5833C44.4792 47.7727 44.277 47.2909 43.993 47.007C43.7091 46.7231 43.2274 46.5208 42.4167 46.5208H40.5833C39.7727 46.5208 39.2909 46.7231 39.007 47.007Z" fill="#F1F1F1"/>
<path fill-rule="evenodd" clip-rule="evenodd" d="M41.5 35.5208C39.8547 35.5208 38.5208 36.8547 38.5208 38.5C38.5208 40.1454 39.8547 41.4792 41.5 41.4792C43.1454 41.4792 44.4792 40.1454 44.4792 38.5C44.4792 36.8547 43.1454 35.5208 41.5 35.5208ZM37.1458 38.5C37.1458 36.0953 39.0953 34.1458 41.5 34.1458C43.9047 34.1458 45.8542 36.0953 45.8542 38.5C45.8542 40.9047 43.9047 42.8542 41.5 42.8542C39.0953 42.8542 37.1458 40.9047 37.1458 38.5Z" fill="#F1F1F1"/>
<path fill-rule="evenodd" clip-rule="evenodd" d="M52.5 46.5208C50.8547 46.5208 49.5208 47.8547 49.5208 49.5C49.5208 51.1454 50.8547 52.4792 52.5 52.4792C54.1454 52.4792 55.4792 51.1454 55.4792 49.5C55.4792 47.8547 54.1454 46.5208 52.5 46.5208ZM48.1458 49.5C48.1458 47.0953 50.0953 45.1458 52.5 45.1458C54.9047 45.1458 56.8542 47.0953 56.8542 49.5C56.8542 51.9047 54.9047 53.8542 52.5 53.8542C50.0953 53.8542 48.1458 51.9047 48.1458 49.5Z" fill="#F1F1F1"/>
<path d="M78.088 49H74.952V39.2H78.088C81.154 39.2 83.016 41.16 83.016 44.1C83.016 47.026 81.154 49 78.088 49ZM76.17 40.32V47.88H78.088C80.468 47.88 81.77 46.382 81.77 44.1C81.77 41.804 80.468 40.32 78.088 40.32H76.17ZM90.6957 47.95H91.0597V49H90.4297C89.4777 49 89.1557 48.594 89.1417 47.894C88.6937 48.538 87.9797 49.084 86.7477 49.084C85.1797 49.084 84.1157 48.3 84.1157 46.998C84.1157 45.57 85.1097 44.772 86.9857 44.772H89.0857V44.282C89.0857 43.358 88.4277 42.798 87.3077 42.798C86.2997 42.798 85.6277 43.274 85.4877 44.002H84.3397C84.5077 42.602 85.6417 41.776 87.3637 41.776C89.1837 41.776 90.2337 42.686 90.2337 44.352V47.474C90.2337 47.852 90.3737 47.95 90.6957 47.95ZM89.0857 46.088V45.738H86.8737C85.8517 45.738 85.2777 46.116 85.2777 46.928C85.2777 47.628 85.8797 48.104 86.8317 48.104C88.2597 48.104 89.0857 47.278 89.0857 46.088ZM91.6482 46.648H92.8242C92.8662 47.488 93.6082 48.104 94.7982 48.104C95.8062 48.104 96.5202 47.67 96.5202 47.012C96.5202 46.116 95.7362 46.046 94.6722 45.92C93.0762 45.724 91.8022 45.402 91.8022 43.918C91.8022 42.616 92.9922 41.762 94.6022 41.776C96.2262 41.79 97.4022 42.546 97.5142 44.03H96.3382C96.2542 43.302 95.5822 42.756 94.6022 42.756C93.6082 42.756 92.9362 43.176 92.9362 43.834C92.9362 44.618 93.6922 44.716 94.7282 44.842C96.3522 45.038 97.6542 45.346 97.6542 46.928C97.6542 48.258 96.3802 49.084 94.7982 49.084C92.9502 49.084 91.6762 48.216 91.6482 46.648ZM102.429 41.776C104.025 41.776 105.327 42.658 105.327 45.024V49H104.179V45.094C104.179 43.61 103.465 42.826 102.233 42.826C100.903 42.826 100.077 43.82 100.077 45.43V49H98.9285V39.2H100.077V43.036C100.497 42.364 101.225 41.776 102.429 41.776ZM110.388 41.776C112.362 41.776 113.818 43.106 113.818 45.43C113.818 47.614 112.362 49.084 110.388 49.084C109.184 49.084 108.372 48.594 107.938 47.908L107.784 49H106.79V39.2H107.938V43.008C108.414 42.35 109.184 41.776 110.388 41.776ZM110.276 48.062C111.69 48.062 112.642 46.984 112.642 45.43C112.642 43.876 111.69 42.798 110.276 42.798C108.876 42.798 107.924 43.876 107.924 45.402C107.924 46.97 108.876 48.062 110.276 48.062ZM118.42 49.084C116.334 49.084 114.878 47.6 114.878 45.43C114.878 43.26 116.334 41.776 118.42 41.776C120.506 41.776 121.962 43.26 121.962 45.43C121.962 47.6 120.506 49.084 118.42 49.084ZM118.42 48.062C119.834 48.062 120.786 46.956 120.786 45.43C120.786 43.904 119.834 42.798 118.42 42.798C117.006 42.798 116.054 43.904 116.054 45.43C116.054 46.956 117.006 48.062 118.42 48.062ZM129.592 47.95H129.956V49H129.326C128.374 49 128.052 48.594 128.038 47.894C127.59 48.538 126.876 49.084 125.644 49.084C124.076 49.084 123.012 48.3 123.012 46.998C123.012 45.57 124.006 44.772 125.882 44.772H127.982V44.282C127.982 43.358 127.324 42.798 126.204 42.798C125.196 42.798 124.524 43.274 124.384 44.002H123.236C123.404 42.602 124.538 41.776 126.26 41.776C128.08 41.776 129.13 42.686 129.13 44.352V47.474C129.13 47.852 129.27 47.95 129.592 47.95ZM127.982 46.088V45.738H125.77C124.748 45.738 124.174 46.116 124.174 46.928C124.174 47.628 124.776 48.104 125.728 48.104C127.156 48.104 127.982 47.278 127.982 46.088ZM134.143 41.86H134.465V42.98H133.891C132.393 42.98 131.987 44.226 131.987 45.36V49H130.839V41.86H131.833L131.987 42.938C132.323 42.392 132.869 41.86 134.143 41.86ZM140.678 42.952V39.2H141.826V49H140.832L140.678 47.852C140.202 48.51 139.432 49.084 138.228 49.084C136.254 49.084 134.798 47.754 134.798 45.43C134.798 43.246 136.254 41.776 138.228 41.776C139.432 41.776 140.244 42.266 140.678 42.952ZM138.34 48.062C139.74 48.062 140.692 46.984 140.692 45.458C140.692 43.89 139.74 42.798 138.34 42.798C136.926 42.798 135.974 43.876 135.974 45.43C135.974 46.984 136.926 48.062 138.34 48.062Z" fill="white"/>
<rect x="20" y="104" width="160" height="48" rx="24" fill="white"/>
<path fill-rule="evenodd" clip-rule="evenodd" d="M49.0347 119.035C49.6674 118.402 50.5607 118.146 51.5833 118.146H53.4167C54.4393 118.146 55.3326 118.402 55.9653 119.035C56.5981 119.667 56.8542 120.561 56.8542 121.583V123.417C56.8542 124.439 56.5981 125.333 55.9653 125.965C55.3326 126.598 54.4393 126.854 53.4167 126.854H51.5833C50.5607 126.854 49.6674 126.598 49.0347 125.965C48.402 125.333 48.1458 124.439 48.1458 123.417V121.583C48.1458 120.561 48.402 119.667 49.0347 119.035ZM50.007 120.007C49.7231 120.291 49.5208 120.773 49.5208 121.583V123.417C49.5208 124.227 49.7231 124.709 50.007 124.993C50.2909 125.277 50.7727 125.479 51.5833 125.479H53.4167C54.2274 125.479 54.7091 125.277 54.993 124.993C55.277 124.709 55.4792 124.227 55.4792 123.417V121.583C55.4792 120.773 55.277 120.291 54.993 120.007C54.7091 119.723 54.2274 119.521 53.4167 119.521H51.5833C50.7727 119.521 50.2909 119.723 50.007 120.007Z" fill="#E65F2B"/>
<path fill-rule="evenodd" clip-rule="evenodd" d="M38.0347 130.035C38.6674 129.402 39.5607 129.146 40.5833 129.146H42.4167C43.4393 129.146 44.3326 129.402 44.9653 130.035C45.5981 130.667 45.8542 131.561 45.8542 132.583V134.417C45.8542 135.439 45.5981 136.333 44.9653 136.965C44.3326 137.598 43.4393 137.854 42.4167 137.854H40.5833C39.5607 137.854 38.6674 137.598 38.0347 136.965C37.402 136.333 37.1458 135.439 37.1458 134.417V132.583C37.1458 131.561 37.402 130.667 38.0347 130.035ZM39.007 131.007C38.7231 131.291 38.5208 131.773 38.5208 132.583V134.417C38.5208 135.227 38.7231 135.709 39.007 135.993C39.2909 136.277 39.7727 136.479 40.5833 136.479H42.4167C43.2274 136.479 43.7091 136.277 43.993 135.993C44.277 135.709 44.4792 135.227 44.4792 134.417V132.583C44.4792 131.773 44.277 131.291 43.993 131.007C43.7091 130.723 43.2274 130.521 42.4167 130.521H40.5833C39.7727 130.521 39.2909 130.723 39.007 131.007Z" fill="#E65F2B"/>
<path fill-rule="evenodd" clip-rule="evenodd" d="M41.5 119.521C39.8547 119.521 38.5208 120.855 38.5208 122.5C38.5208 124.145 39.8547 125.479 41.5 125.479C43.1454 125.479 44.4792 124.145 44.4792 122.5C44.4792 120.855 43.1454 119.521 41.5 119.521ZM37.1458 122.5C37.1458 120.095 39.0953 118.146 41.5 118.146C43.9047 118.146 45.8542 120.095 45.8542 122.5C45.8542 124.905 43.9047 126.854 41.5 126.854C39.0953 126.854 37.1458 124.905 37.1458 122.5Z" fill="#E65F2B"/>
<path fill-rule="evenodd" clip-rule="evenodd" d="M52.5 130.521C50.8547 130.521 49.5208 131.855 49.5208 133.5C49.5208 135.145 50.8547 136.479 52.5 136.479C54.1454 136.479 55.4792 135.145 55.4792 133.5C55.4792 131.855 54.1454 130.521 52.5 130.521ZM48.1458 133.5C48.1458 131.095 50.0953 129.146 52.5 129.146C54.9047 129.146 56.8542 131.095 56.8542 133.5C56.8542 135.905 54.9047 137.854 52.5 137.854C50.0953 137.854 48.1458 135.905 48.1458 133.5Z" fill="#E65F2B"/>
<path d="M78.088 133H74.952V123.2H78.088C81.154 123.2 83.016 125.16 83.016 128.1C83.016 131.026 81.154 133 78.088 133ZM76.17 124.32V131.88H78.088C80.468 131.88 81.77 130.382 81.77 128.1C81.77 125.804 80.468 124.32 78.088 124.32H76.17ZM90.6957 131.95H91.0597V133H90.4297C89.4777 133 89.1557 132.594 89.1417 131.894C88.6937 132.538 87.9797 133.084 86.7477 133.084C85.1797 133.084 84.1157 132.3 84.1157 130.998C84.1157 129.57 85.1097 128.772 86.9857 128.772H89.0857V128.282C89.0857 127.358 88.4277 126.798 87.3077 126.798C86.2997 126.798 85.6277 127.274 85.4877 128.002H84.3397C84.5077 126.602 85.6417 125.776 87.3637 125.776C89.1837 125.776 90.2337 126.686 90.2337 128.352V131.474C90.2337 131.852 90.3737 131.95 90.6957 131.95ZM89.0857 130.088V129.738H86.8737C85.8517 129.738 85.2777 130.116 85.2777 130.928C85.2777 131.628 85.8797 132.104 86.8317 132.104C88.2597 132.104 89.0857 131.278 89.0857 130.088ZM91.6482 130.648H92.8242C92.8662 131.488 93.6082 132.104 94.7982 132.104C95.8062 132.104 96.5202 131.67 96.5202 131.012C96.5202 130.116 95.7362 130.046 94.6722 129.92C93.0762 129.724 91.8022 129.402 91.8022 127.918C91.8022 126.616 92.9922 125.762 94.6022 125.776C96.2262 125.79 97.4022 126.546 97.5142 128.03H96.3382C96.2542 127.302 95.5822 126.756 94.6022 126.756C93.6082 126.756 92.9362 127.176 92.9362 127.834C92.9362 128.618 93.6922 128.716 94.7282 128.842C96.3522 129.038 97.6542 129.346 97.6542 130.928C97.6542 132.258 96.3802 133.084 94.7982 133.084C92.9502 133.084 91.6762 132.216 91.6482 130.648ZM102.429 125.776C104.025 125.776 105.327 126.658 105.327 129.024V133H104.179V129.094C104.179 127.61 103.465 126.826 102.233 126.826C100.903 126.826 100.077 127.82 100.077 129.43V133H98.9285V123.2H100.077V127.036C100.497 126.364 101.225 125.776 102.429 125.776ZM110.388 125.776C112.362 125.776 113.818 127.106 113.818 129.43C113.818 131.614 112.362 133.084 110.388 133.084C109.184 133.084 108.372 132.594 107.938 131.908L107.784 133H106.79V123.2H107.938V127.008C108.414 126.35 109.184 125.776 110.388 125.776ZM110.276 132.062C111.69 132.062 112.642 130.984 112.642 129.43C112.642 127.876 111.69 126.798 110.276 126.798C108.876 126.798 107.924 127.876 107.924 129.402C107.924 130.97 108.876 132.062 110.276 132.062ZM118.42 133.084C116.334 133.084 114.878 131.6 114.878 129.43C114.878 127.26 116.334 125.776 118.42 125.776C120.506 125.776 121.962 127.26 121.962 129.43C121.962 131.6 120.506 133.084 118.42 133.084ZM118.42 132.062C119.834 132.062 120.786 130.956 120.786 129.43C120.786 127.904 119.834 126.798 118.42 126.798C117.006 126.798 116.054 127.904 116.054 129.43C116.054 130.956 117.006 132.062 118.42 132.062ZM129.592 131.95H129.956V133H129.326C128.374 133 128.052 132.594 128.038 131.894C127.59 132.538 126.876 133.084 125.644 133.084C124.076 133.084 123.012 132.3 123.012 130.998C123.012 129.57 124.006 128.772 125.882 128.772H127.982V128.282C127.982 127.358 127.324 126.798 126.204 126.798C125.196 126.798 124.524 127.274 124.384 128.002H123.236C123.404 126.602 124.538 125.776 126.26 125.776C128.08 125.776 129.13 126.686 129.13 128.352V131.474C129.13 131.852 129.27 131.95 129.592 131.95ZM127.982 130.088V129.738H125.77C124.748 129.738 124.174 130.116 124.174 130.928C124.174 131.628 124.776 132.104 125.728 132.104C127.156 132.104 127.982 131.278 127.982 130.088ZM134.143 125.86H134.465V126.98H133.891C132.393 126.98 131.987 128.226 131.987 129.36V133H130.839V125.86H131.833L131.987 126.938C132.323 126.392 132.869 125.86 134.143 125.86ZM140.678 126.952V123.2H141.826V133H140.832L140.678 131.852C140.202 132.51 139.432 133.084 138.228 133.084C136.254 133.084 134.798 131.754 134.798 129.43C134.798 127.246 136.254 125.776 138.228 125.776C139.432 125.776 140.244 126.266 140.678 126.952ZM138.34 132.062C139.74 132.062 140.692 130.984 140.692 129.458C140.692 127.89 139.74 126.798 138.34 126.798C136.926 126.798 135.974 127.876 135.974 129.43C135.974 130.984 136.926 132.062 138.34 132.062Z" fill="#E65F2B"/>
</svg>
